<?xml version="1.0" standalone="no"?>
<!DOCTYPE svg PUBLIC "-//W3C//DTD SVG 20010904//EN"
 "http://www.w3.org/TR/2001/REC-SVG-20010904/DTD/svg10.dtd">
<svg version="1.0" xmlns="http://www.w3.org/2000/svg"
 width="384.000000pt" height="384.000000pt" viewBox="0 0 384.000000 384.000000"
 preserveAspectRatio="xMidYMid meet">
<metadata>
Created by potrace 1.14, written by Peter Selinger 2001-2017
</metadata>
<g transform="translate(0.000000,384.000000) scale(0.100000,-0.100000)"
fill="#000000" stroke="none">
<path d="M265 3827 c-104 -31 -181 -97 -229 -197 l-31 -65 -3 -1619 c-2 -1406
0 -1627 13 -1678 27 -106 91 -182 195 -232 l65 -31 1645 0 1645 0 65 31 c107
52 174 134 200 246 6 27 10 622 10 1638 0 1381 -2 1603 -15 1653 -27 105 -91
181 -195 231 l-65 31 -1630 2 c-1216 1 -1640 -2 -1670 -10z"/>
</g>
</svg>
